/* XPM */
static const char * q[] = {
"48 48 240 2",
"  	c None",
". 	c #696969",
"+ 	c #404040",
"@ 	c #202020",
"# 	c #0C0C0C",
"$ 	c #000000",
"% 	c #303030",
"& 	c #080808",
"* 	c #7D7D7D",
"= 	c #000404",
"- 	c #080C0C",
"; 	c #101818",
"> 	c #0C181C",
", 	c #0C1414",
"' 	c #2C2C2C",
") 	c #101C1C",
"! 	c #203C40",
"~ 	c #2C595D",
"{ 	c #38696D",
"] 	c #387171",
"^ 	c #3C7171",
"/ 	c #3C6D6D",
"( 	c #243C3C",
"_ 	c #A5A5A5",
": 	c #040808",
"< 	c #1C383C",
"[ 	c #306169",
"} 	c #386D71",
"| 	c #3C716D",
"1 	c #40716D",
"2 	c #44756D",
"3 	c #3C615D",
"4 	c #898989",
"5 	c #18383C",
"6 	c #306971",
"7 	c #346D75",
"8 	c #447569",
"9 	c #487569",
"0 	c #4C7569",
"a 	c #446559",
"b 	c #285D69",
"c 	c #306D75",
"d 	c #44716D",
"e 	c #4C7565",
"f 	c #507965",
"g 	c #557561",
"h 	c #101410",
"i 	c #040404",
"j 	c #143038",
"k 	c #286979",
"l 	c #557961",
"m 	c #5D7D5D",
"n 	c #384838",
"o 	c #283020",
"p 	c #445940",
"q 	c #597155",
"r 	c #59795D",
"s 	c #597961",
"t 	c #4C7165",
"u 	c #40655D",
"v 	c #2C4444",
"w 	c #141C1C",
"x 	c #183C48",
"y 	c #24697D",
"z 	c #306D79",
"A 	c #617D5D",
"B 	c #657D59",
"C 	c #141810",
"D 	c #242C1C",
"E 	c #65754C",
"F 	c #6D8155",
"G 	c #698155",
"H 	c #305D5D",
"I 	c #081014",
"J 	c #143848",
"K 	c #2C6979",
"L 	c #617D59",
"M 	c #61754C",
"N 	c #40482C",
"O 	c #75854C",
"P 	c #758550",
"Q 	c #718150",
"R 	c #4C7965",
"S 	c #346D71",
"T 	c #284C55",
"U 	c #102C34",
"V 	c #206581",
"W 	c #555D38",
"X 	c #3C4024",
"Y 	c #818948",
"Z 	c #7D8548",
"` 	c #79854C",
" .	c #20657D",
"..	c #08141C",
"+.	c #1C617D",
"@.	c #718550",
"#.	c #484C2C",
"$.	c #18180C",
"%.	c #858944",
"&.	c #898944",
"*.	c #898D40",
"=.	c #858948",
"-.	c #7D8948",
";.	c #656565",
">.	c #18556D",
",.	c #597D5D",
"'.	c #404024",
").	c #59592C",
"!.	c #8D8D40",
"~.	c #918D3C",
"{.	c #918D40",
"].	c #7D854C",
"^.	c #0C2C3C",
"/.	c #186585",
"(.	c #2C6D79",
"_.	c #444424",
":.	c #8D853C",
"<.	c #999138",
"[.	c #9D9138",
"}.	c #958D3C",
"|.	c #186581",
"1.	c #145979",
"2.	c #1C6581",
"3.	c #507961",
"4.	c #658159",
"5.	c #444020",
"6.	c #8D8534",
"7.	c #A19534",
"8.	c #A59530",
"9.	c #A59534",
"0.	c #99913C",
"a.	c #898940",
"b.	c #0C2834",
"c.	c #146185",
"d.	c #44401C",
"e.	c #50481C",
"f.	c #AA9530",
"g.	c #AE952C",
"h.	c #AE992C",
"i.	c #9D9134",
"j.	c #104C6D",
"k.	c #95913C",
"l.	c #554C1C",
"m.	c #958128",
"n.	c #B69928",
"o.	c #B2992C",
"p.	c #AE9530",
"q.	c #040C10",
"r.	c #106185",
"s.	c #716524",
"t.	c #1C1808",
"u.	c #AA9124",
"v.	c #BE9D24",
"w.	c #BA9D24",
"x.	c #BA9928",
"y.	c #B29928",
"z.	c #28697D",
"A.	c #082434",
"B.	c #106189",
"C.	c #9D892C",
"D.	c #241C0C",
"E.	c #B28D20",
"F.	c #C6A120",
"G.	c #C29D20",
"H.	c #0C3850",
"I.	c #2C280C",
"J.	c #141004",
"K.	c #A1811C",
"L.	c #CAA11C",
"M.	c #104869",
"N.	c #917920",
"O.	c #040400",
"P.	c #7D6518",
"Q.	c #105075",
"R.	c #594814",
"S.	c #A19134",
"T.	c #10557D",
"U.	c #C6A11C",
"V.	c #CAA118",
"W.	c #48380C",
"X.	c #4C4014",
"Y.	c #10597D",
"Z.	c #CEA118",
"`.	c #D2A114",
" +	c #594810",
".+	c #615018",
"++	c #CEA11C",
"@+	c #D2A518",
"#+	c #D6A514",
"$+	c #7D6114",
"%+	c #8D7924",
"&+	c #9D7D18",
"*+	c #100C04",
"=+	c #24200C",
"-+	c #104865",
";+	c #AA8D20",
">+	c #716928",
",+	c #A58924",
"'+	c #141408",
")+	c #282814",
"!+	c #897928",
"~+	c #040000",
"{+	c #85813C",
"]+	c #4C441C",
"^+	c #918938",
"/+	c #080804",
"(+	c #383820",
"_+	c #202014",
":+	c #698159",
"<+	c #717540",
"[+	c #798548",
"}+	c #202418",
"|+	c #38402C",
"1+	c #617955",
"2+	c #384430",
"3+	c #5D7959",
"4+	c #1C201C",
"5+	c #55755D",
"6+	c #6D8150",
"7+	c #485D48",
"8+	c #0C1010",
"9+	c #101814",
"0+	c #28595D",
"a+	c #305959",
"b+	c #4C6D5D",
"c+	c #141C18",
"d+	c #1C2C28",
"e+	c #8D8D8D",
"f+	c #182828",
"g+	c #344C40",
"h+	c #284848",
"i+	c #1C2C2C",
"j+	c #284440",
"k+	c #34554C",
"l+	c #385D55",
"m+	c #3C6159",
"n+	c #38554C",
"o+	c #304840",
"p+	c #20302C",
"q+	c #305D61",
"                                      . + @ # $ $ # @ +                                         ",
"                                % $ $ $ $ $ $ $ $ $ $ $ $ $ $ %                                 ",
"                            & $ $ $ $ $ $ $ $ $ $ $ $ $ $ $ $ $ $ &                             ",
"                      * & $ $ $ $ $ $ $ = - ; > > , $ $ $ $ $ $ $ $ $ &                         ",
"                    ' $ $ $ $ $ $ ) ! ~ { ] ^ / ( - $ $ $ $ $ $ $ $ $ $ $ '                     ",
"                _ & $ $ $ $ : < [ } ^ | 1 2 3 , $ $ $ $ $ $ $ $ $ $ $ $ $ $ &                   ",
"              4 $ $ $ $ = 5 6 7 ] 1 8 9 0 a & $ $ $ $ $ $ $ $ $ $ $ $ $ $ $ $ $                 ",
"            4 $ $ $ $ > b c } | d 9 e f g h $ $ $ $ $ $ & - - i $ $ $ $ $ $ $ $ $               ",
"          _ $ $ $ $ j k c } | 8 e f l m n $ $ $ i o p q r s f t u v w $ $ $ $ $ $ $             ",
"          & $ $ $ x y z } 1 9 e l r A B C $ $ D E F G G B A r l e 9 1 H ) I x $ $ $ &           ",
"        ' $ $ $ J y K 7 | 9 e l m L G M $ $ N O O O P Q F G B m l R 9 | S T y J $ $ $ '         ",
"      * $ $ $ U V k 7 ^ 8 e l m B F Q W $ X Y Y Y Y Z ` O Q F B m l e 8 ^ 7 k  .U $ $ $         ",
"      & $ $ ..+.y c ] 1 e l m B F @.` #.$.%.&.*.*.&.%.=.-.` P F B m l e 1 ] c y +...$ $ &       ",
"    ;.$ $ $ >.V k 7 | 9 f ,.B F P ` Y '.).!.~.~.~.~.{.!.&.Y ].P F B m f 9 | 7 k V >.$ $ $       ",
"    & $ $ ^./.y (.] d e s L G @.` Y &._.:.<.<.[.[.<.<.}.!.&.Y ].@.G L s e d ] z y |.^.$ $ &     ",
"    $ $ = 1.2.k 7 | 9 3.m 4.Q ` Y &.~.5.6.7.7.8.8.9.7.[.0.~.a.Y ` Q 4.m 3.9 | 7 k 2.1.= $ $ 4   ",
"  % $ $ b.c.V K S 1 e s L F O -.&.{.<.d.e.f.g.h.h.g.f.9.i.<.~.&.Y O F L s e 1 } K  .c.b.$ $ %   ",
"  $ $ $ j./.y z ] 8 f m B Q ` %.!.k.i.l.i m.n.n.n.n.o.p.8.i.k.!.%.` Q 4.m f 8 ] c y /.j.$ $ $   ",
"  $ $ q.r.2.y c ^ 9 l m G P -.&.~.[.9.s.$ t.u.v.v.w.x.y.g.9.[.~.&.Y P G A l 9 | c z.2.r.q.$ $   ",
". $ $ A.B.2.k 7 1 0 l L F ` Y !.k.7.f.C.$ $ D.E.F.G.v.x.o.f.7.<.!.Y ` F L s e 1 7 k 2.r.A.$ $   ",
"+ $ $ H.c.V k 7 1 e s B Q ` %.{.<.9.h.n.I.$ $ J.K.L.F.v.n.h.9.<.~.%.].Q B s e 1 S K V c.H.$ $ + ",
"@ $ $ M.c.V K } d f r 4.@.Z &.~.[.f.o.w.N.$ $ $ O.P.L.G.w.o.f.[.}.&.Z @.4.m f d } K V c.M.$ $ @ ",
"# $ $ Q.c. .K } 8 f m G P -.&.}.i.f.n.v.F.R.$ $ $ $ R.G.v.n.f.S.}.a.-.P G m f 8 ] K  .c.Q.$ $ # ",
"$ $ $ T.c. .K ] 8 f m G P Y *.}.S.f.n.v.U.V.W.$ $ $ $ X.v.n.f.S.k.*.Y P G m f 8 ] (. .c.Y.$ $ $ ",
"$ $ $ T.c. .K ] 8 f m G P Y *.}.S.f.n.v.U.Z.`. +$ $ $ $ .+n.f.S.k.*.Y P G m f 8 ] (. .c.Y.$ $ $ ",
"# $ $ Q.c. .K ] 8 f m G P -.a.}.i.f.n.v.F.++@+#+$+O.$ $ O.%+f.S.}.a.Y P G m f 8 ] K  .c.Q.$ $ # ",
"@ $ $ M.c.V K } d f r 4.@.Z &.~.[.f.o.w.G.L.Z.@+@+&+*+$ $ =+f.[.}.&.Z @.4.m f d } K V c.-+$ $ @ ",
"+ $ $ H.c.V k 7 1 e s B Q ` %.{.<.9.h.n.v.F.L.++++L.;+t.$ $ >+<.~.%.].Q B r e 1 S K V c.H.$ $ + ",
". $ $ A.B.2.k 7 1 e s L F ` Y !.0.7.f.o.x.v.G.F.F.G.v.,+'+$ )+<.!.=.` F L s e 1 7 k 2.c.A.$ $ . ",
"  $ $ q.r.2.y c ^ 9 l A G P -.&.~.[.9.g.y.x.v.v.v.v.x.y.!+O.~+{+&.Y P G A l 9 | c z.2.r.q.$ $   ",
"  $ $ $ j./.y c ] 8 f m 4.Q ` %.!.k.i.8.g.o.n.n.n.n.o.g.8.]+$ ).%.` Q 4.m f 8 ] c y /.j.$ $ $   ",
"  % $ $ b.c.V K S 1 e s L F O Y &.~.<.i.9.f.g.h.h.g.f.9.i.^+/+(+Y O F L s e 1 } K  .c.b.$ $ %   ",
"    $ $ = 1.2.k 7 | 9 3.m 4.Q ` Y a.~.<.[.7.9.8.8.9.7.[.<.~.'._+` Q :+m l 9 | 7 k 2.1.i $ $     ",
"    & $ $ ^.|.y z ] d e s L G @.].Y a.{.}.<.<.[.[.<.<.}.{.a.<+h @.G L s e d ] c y |.^.$ $ &     ",
"      $ $ $ >.V k 7 | 9 f m B F P ].Y &.!.{.~.}.}.~.{.!.&.Y [+}+F B m f 9 | 7 k V >.$ $ $       ",
"      & $ $ ..+.y c ] 1 e l m B F P ` -.%.%.&.*.*.&.%.%.Y ` P |+1+m l e d ] c y +...$ $ &       ",
"      * $ $ $ U V k 7 ^ 8 e l m B F Q O ` Z Y Y Y Y Z ` O Q F 2+3+l e 8 ^ 7 k  .U $ $ $ *       ",
"        ' $ $ $ J y (.7 | 9 R l m B G F @.P O ` ` O P @.F G L 4+5+f 9 1 S (.y J $ $ $ '         ",
"          & $ $ $ x z.c } 1 9 e l r A B G G F 6+6+F F G B A 7+- e 9 1 } c z.x $ $ $ &           ",
"            $ $ $ $ j k c } 1 8 e f s m m L B B B B L m m 5+8+9+8 1 } c k j $ $ $ $             ",
"            4 $ $ $ $ > b 0+a+| d 9 e f l s r r r r s l b+c+$ d+| } c b > $ $ $ $               ",
"              e+$ $ $ $ = > $ f+a+1 8 9 e e f f f f e g+- $ $ h+7 6 5 = $ $ $ $                 ",
"                  & $ $ $ $ $ $ $ - i+j+k+l+m+n+o+p+- $ $ $ : q+< : $ $ $ $ &                   ",
"                      $ $ $ $ $ $ $ $ $ $ $ $ $ $ $ $ $ $ $ = $ $ $ $ $ $ '                     ",
"                      * & $ $ $ $ $ $ $ $ $ $ $ $ $ $ $ $ $ $ $ $ $ $ &                         ",
"                          ;.& $ $ $ $ $ $ $ $ $ $ $ $ $ $ $ $ $ $ &                             ",
"                                % $ $ $ $ $ $ $ $ $ $ $ $ $ $ %                                 ",
"                                      . + @ # $ $ # @ + .                                       "};
