/* XPM */
static const char * t[] = {
"64 64 236 2",
"  	c None",
". 	c #FFFFFF",
"+ 	c #F2F2F2",
"@ 	c #CCCCCC",
"# 	c #A9A9A9",
"$ 	c #8D8D8D",
"% 	c #787878",
"& 	c #6A6A6A",
"* 	c #646464",
"= 	c #666666",
"- 	c #707070",
"; 	c #828282",
"> 	c #9B9B9B",
", 	c #BCBCBC",
"' 	c #E4E4E4",
") 	c #FDFDFD",
"! 	c #EAEAEA",
"~ 	c #A5A5A5",
"{ 	c #636363",
"] 	c #292929",
"^ 	c #040404",
"/ 	c #000000",
"( 	c #171717",
"_ 	c #4F4F4F",
": 	c #929292",
"< 	c #DDDDDD",
"[ 	c #F4F4F4",
"} 	c #A0A0A0",
"| 	c #434343",
"1 	c #050505",
"2 	c #020202",
"3 	c #373737",
"4 	c #999999",
"5 	c #F3F3F3",
"6 	c #E7E7E7",
"7 	c #777777",
"8 	c #121212",
"9 	c #070707",
"0 	c #222222",
"a 	c #3B3B3B",
"b 	c #474747",
"c 	c #484848",
"d 	c #444444",
"e 	c #333333",
"f 	c #181818",
"g 	c #030303",
"h 	c #141414",
"i 	c #858585",
"j 	c #F0F0F0",
"k 	c #0B0B0B",
"l 	c #4A4A4A",
"m 	c #CDCDCD",
"n 	c #F7F7F7",
"o 	c #EFEFEF",
"p 	c #C0C0C0",
"q 	c #383838",
"r 	c #1A1A1A",
"s 	c #A6A6A6",
"t 	c #FEFEFE",
"u 	c #191919",
"v 	c #252525",
"w 	c #919191",
"x 	c #ECECEC",
"y 	c #DBDBDB",
"z 	c #747474",
"A 	c #0F0F0F",
"B 	c #515151",
"C 	c #EBEBEB",
"D 	c #202020",
"E 	c #A3A3A3",
"F 	c #FBFBFB",
"G 	c #6B6B6B",
"H 	c #1F1F1F",
"I 	c #CECECE",
"J 	c #C6C6C6",
"K 	c #1C1C1C",
"L 	c #7A7A7A",
"M 	c #F5F5F5",
"N 	c #0C0C0C",
"O 	c #B8B8B8",
"P 	c #9F9F9F",
"Q 	c #C9C9C9",
"R 	c #EDEDED",
"S 	c #080808",
"T 	c #B5B5B5",
"U 	c #848484",
"V 	c #010101",
"W 	c #494949",
"X 	c #F8F8F8",
"Y 	c #525252",
"Z 	c #0A0A0A",
"` 	c #C5C5C5",
" .	c #696969",
"..	c #F9F9F9",
"+.	c #E3E3E3",
"@.	c #7E7E7E",
"#.	c #797979",
"$.	c #282828",
"%.	c #414141",
"&.	c #969696",
"*.	c #737373",
"=.	c #D0D0D0",
"-.	c #979797",
";.	c #BBBBBB",
">.	c #575757",
",.	c #EEEEEE",
"'.	c #161616",
").	c #2F2F2F",
"!.	c #1B1B1B",
"~.	c #7F7F7F",
"{.	c #454545",
"].	c #D5D5D5",
"^.	c #242424",
"/.	c #808080",
"(.	c #D3D3D3",
"_.	c #8F8F8F",
":.	c #8A8A8A",
"<.	c #0D0D0D",
"[.	c #2A2A2A",
"}.	c #FAFAFA",
"|.	c #090909",
"1.	c #5B5B5B",
"2.	c #555555",
"3.	c #B0B0B0",
"4.	c #BEBEBE",
"5.	c #131313",
"6.	c #1D1D1D",
"7.	c #060606",
"8.	c #545454",
"9.	c #C7C7C7",
"0.	c #868686",
"a.	c #585858",
"b.	c #212121",
"c.	c #111111",
"d.	c #262626",
"e.	c #4C4C4C",
"f.	c #D2D2D2",
"g.	c #ABABAB",
"h.	c #E8E8E8",
"i.	c #303030",
"j.	c #FCFCFC",
"k.	c #2E2E2E",
"l.	c #E6E6E6",
"m.	c #F6F6F6",
"n.	c #A8A8A8",
"o.	c #101010",
"p.	c #D1D1D1",
"q.	c #BFBFBF",
"r.	c #8C8C8C",
"s.	c #717171",
"t.	c #626262",
"u.	c #A1A1A1",
"v.	c #353535",
"w.	c #D9D9D9",
"x.	c #B7B7B7",
"y.	c #686868",
"z.	c #2B2B2B",
"A.	c #363636",
"B.	c #8B8B8B",
"C.	c #4B4B4B",
"D.	c #4D4D4D",
"E.	c #7B7B7B",
"F.	c #606060",
"G.	c #C8C8C8",
"H.	c #9A9A9A",
"I.	c #DCDCDC",
"J.	c #E9E9E9",
"K.	c #6C6C6C",
"L.	c #616161",
"M.	c #AFAFAF",
"N.	c #ACACAC",
"O.	c #BABABA",
"P.	c #9D9D9D",
"Q.	c #818181",
"R.	c #505050",
"S.	c #F1F1F1",
"T.	c #5C5C5C",
"U.	c #727272",
"V.	c #C4C4C4",
"W.	c #323232",
"X.	c #898989",
"Y.	c #AAAAAA",
"Z.	c #656565",
"`.	c #D7D7D7",
" +	c #B6B6B6",
".+	c #909090",
"++	c #BDBDBD",
"@+	c #595959",
"#+	c #E1E1E1",
"$+	c #7C7C7C",
"%+	c #959595",
"&+	c #E5E5E5",
"*+	c #7D7D7D",
"=+	c #B3B3B3",
"-+	c #9C9C9C",
";+	c #424242",
">+	c #272727",
",+	c #676767",
"'+	c #393939",
")+	c #B9B9B9",
"!+	c #DEDEDE",
"~+	c #DFDFDF",
"{+	c #767676",
"]+	c #D4D4D4",
"^+	c #E2E2E2",
"/+	c #D6D6D6",
"(+	c #E0E0E0",
"_+	c #989898",
":+	c #343434",
"<+	c #B1B1B1",
"[+	c #232323",
"}+	c #5D5D5D",
"|+	c #151515",
"1+	c #6D6D6D",
"2+	c #939393",
"3+	c #404040",
"4+	c #C3C3C3",
"5+	c #949494",
"6+	c #9E9E9E",
"7+	c #A7A7A7",
"8+	c #6E6E6E",
"9+	c #5F5F5F",
"0+	c #CFCFCF",
"a+	c #464646",
"b+	c #3C3C3C",
"c+	c #3F3F3F",
"d+	c #535353",
"e+	c #8E8E8E",
"f+	c #2D2D2D",
"g+	c #A2A2A2",
"h+	c #838383",
"i+	c #313131",
"j+	c #565656",
"k+	c #3A3A3A",
"l+	c #DADADA",
"m+	c #CACACA",
". . . . . . . . . . . . . . . . . . . . . . . . . . . . . . . . . . . . . . . . . . . . . . . . . . . . . . . . . . . . . . . . ",
". . . . . . . . . . . . . . . . . . . . . . . . . . . . . . . . . . . . . . . . . . . . . . . . . . . . . . . . . . . . . . . . ",
". . . . . . . . . . . . . . . . . . . . . . . . . . . . + @ # $ % & * * = - ; > , ' ) . . . . . . . . . . . . . . . . . . . . . ",
". . . . . . . . . . . . . . . . . . . . . . . . ! ~ { ] ^ / / / / / / / / / / / / / ( _ : < . . . . . . . . . . . . . . . . . . ",
". . . . . . . . . . . . . . . . . . . . . [ } | 1 / / / / / / / / / / / / / / / / / / / / 2 3 4 5 . . . . . . . . . . . . . . . ",
". . . . . . . . . . . . . . . . . . . 6 7 8 / / / / / / / / / 9 0 a b c d e f g / / / / / / / / h i + . . . . . . . . . . . . . ",
". . . . . . . . . . . . . . . . . j % k / / / / / / / 9 l : m n . . . . . . . o p ; q 2 / / / / / / r s t . . . . . . . . . . . ",
". . . . . . . . . . . . . . . t s u / / / / / / / v w x . . . . . . . . . . . . . . . y z A / / / / / / B x . . . . . . . . . . ",
". . . . . . . . . . . . . . C B / / / / / / / D E F . . . . . . . . . . . . . . . . . . . C G g / / / / / H I . . . . . . . . . ",
". . . . . . . . . . . . . J K / / / / / / 1 L M . . . . . . . . . . . . . . . . . . . . . . . J 0 / / / / / N O . . . . . . . . ",
". . . . . . . . . . . . P 9 / / / / / / 0 Q . . . . . . . . . . . . . . . . . . . . . . . . . . R | / / / / / S T . . . . . . . ",
". . . . . . . . . . . U V / / / / / / W o . . . . . . . . . . . . . . . . . . . . . . . . . . . . X Y / / / / / Z ` . . . . . . ",
". . . . . . . . . . % / / / / / / /  .F . . . . . . . . . . . . . . . . . . . . . . . . . . . . . . ..b / / / / / ( +.. . . . . ",
". . . . . . . . . @./ / / / / / / #.t . . . . . . . . . . . . . . . . . . . . . . . . . . . . . . . . j $./ / / / / %.) . . . . ",
". . . . . . . . &./ / / / / / / *.t . . . . . . . . . . . . . . . . . . . . . . . . . . . . . . . . . . =.9 / / / / / -.. . . . ",
". . . . . . . ;.1 / / / / / / >.) . . . . . . . . . . . . . . . . . . . . . . . . . . . . . . . . . . . . @./ / / / / h ,.. . . ",
". . . . . . ' './ / / / / / ).[ . . . . . . ) M + 5 ... . . . . . . . . . . . . . . . . . . . . . . . . . M !./ / / / / ~.. . . ",
". . . . . ) {./ / / / / / Z ].. . [ T % c ^.N ^ g g 9 !.d /.(.. . . . . . . . . . . . . . . . . . . . . . . _./ / / / / '.n . . ",
". . . . . > / / / / / / / :.. y { <./ / / / / / / / / / / / V _ ' . . . . . . . . . . . . . . . . . . . . . j N / / / / / # . . ",
". . . . x h / / / / / / [.}.4 |./ / / / / / / / / / / / / / / / K +.. . . . . . . . . . . . . . . . . . . . . 1./ / / / / 2.. . ",
". . . . *./ / / / / / / 3.4.2 / / / / / / V 5.6.7./ / / / / / / / 8.. t 9.0.a.3 b.h c.5.d.e.i f.. . . . . . . g./ / / / / c.F . ",
". . . h.Z / / / / / / i.j.k./ / / / / / <.l.. . m.n.o./ / / / / / S h.q / / / / / / / / / / / / 3 O . . . . . ! 2 / / / / / p.. ",
". . . ~./ / / / / / / } q./ / g ^./ / / e.. . . . . r./ / / / / / V s./ / / / / / / / / / / / / / / t.n . . . . ^./ / / / / u.. ",
". . }.!./ / / / / / A m.q.v.- w.>./ / / r.. . . . . x./ / / / / / Z y./ 1 z.d / / / A.w.B.r / / / / / C.F . . . D./ / / / / E.. ",
". . x./ / / / / / / F.. . . . + k / / / G.. . . . . H./ / / / / / b X I.+ . *./ / / L . . J.^./ / / / / U . . . K./ / / / / L.. ",
". . * / / / / / / / M.. . . . N./ / / N ... . . . ) 3 / / / / / V O.. . . j.!./ / / x.. . . P./ / / / / A M . . Q./ / / / / R.. ",
". t 6./ / / / / / ^ S.. . . . T./ / / d . . . . . r./ / / / / / U.. . . . V./ / / g j . . . f./ / / / / / 4.. . r./ / / / / l . ",
". y / / / / / / / W.. . . . j.( / / / X.. . . . > g / / / / V % t . . . . *./ / / W.. . . . ]./ / / / / / Y.. . r./ / / / / l . ",
". s / / / / / / / Z.. . . . `./ / / V `.. . [ K.V / / / / d.O . . . . . . $./ / / z . . . .  +/ / / / / / O . . :./ / / / / Y . ",
". #./ / / / / / / .+. . . . ++/ / / @+. #+$+r / / / / D %+}.. . . . . . &+V / / / q.. . . . *./ / / / / g ! . . *+/ / / / / = . ",
". 2./ / / / / / / =+. . . . 5 | e -+j.. ;+/ / / / / / / V ] /.C . . . . 4./ / / >+j.. . . [ ( / / / / / D.. . . ,+/ / / / / ; . ",
". '+/ / / / / / / I . . . . . . . . . .  +).2 / / / / / / / / 5.)+. . . !+Z V C.~+. . . . {+/ / / / / S ]+. . . W / / / / / Y.. ",
". d./ / / / / / / ^+. . . . . . . . . . . . S.;.@+V / / / / / / |./+. . . l.(+. . . . . _+2 / / / / ^ s . . . . 0 / / / / / I.. ",
". !./ / / / / / / j . . . . . . . . . . . . . . . .+/ / / / / / / t.. . . . . . . . 6 Z./ / / / / '.x.. . . . x 2 / / / / K t . ",
". u / / / / / / / [ . . . . . . . . . . . . . . . t :+/ / / / / / ] . . . . . . t Z.7./ / / / >+U R . . . . . <+/ / / / / = . . ",
". r / / / / / / / [ . . . . . . . . . . . . . . . . *./ / / / / / [+. . . . . . . h / / / / / <+. . . . . . . y./ / / / / 4.. . ",
". v / / / / / / / j . . . . . . . . . . . . . . . . U./ / / / / / {.. . . . . . . 2./ / / / / './+. . . . . }.( / / / / $.) . . ",
". q / / / / / / / #+. . . . . . . . . . . . . . . . d / / / / / / .+. . . . . . . 3./ / / / / / ( , . . . . Y./ / / / / P.. . . ",
". 8./ / / / / / / @ . . . . . . . . . . . . . . . &+7./ / / / / 5.o . . . . . . . F b./ / / / / / 2 }+<+V.B.|+/ / / / ] }.. . . ",
". % / / / / / / / 3.. . . . . . . . . . . . . . . 1+/ / / / / / P . . . . . . . . . _+/ / / / / / / / / / / / / / / 2 , . . . . ",
". s / / / / / / / :.. . . . . . . . . . . . . . p ^ / / / / / U.. . . . . . . . . . }.>+/ / / / / / / / / / / / / / K.. . . . . ",
". < / / / / / / / T.. . . . !+I F . . . . . . G.5./ / / / V @.t . . . . . . . . . . . )+V / / / / / / / / / / / / q n . . . . . ",
". t b./ / / / / / ^.. . . w 7./ c.8.2+, J <+= 7./ / / / <.n.. . . . . . . . . . . . . . 1+/ / / / / / / / / / / z.J.. . . . . . ",
". . K./ / / / / / / #+. _+V / / / / / / / / / / / / / 3+I.. . . . . . . . . . . . . . . }.>./ / / / / / / / / 3 R . . . . . . . ",
". . 4+/ / / / / / / 5+) A / / / / / / / / / / / / K u.t . . . . . . . . . . . . . . . . . t 6+6./ / / / / '.L m.. . . . . . . . ",
". . ) ] / / / / / / a t z./ / / / / / / / / / 6._.M . . . . . . . . . . . . . . . . . . . . . }.V.-+> 7+f.... . . . . . . . . . ",
". . . %+/ / / / / / V (.C 8+5./ / / / / Z _ N.... . . . . . . . . . . . . . . . . . . . . . . . . . . . . . . . . . . . . . . . ",
". . . M !./ / / / / / 9+. . }.0+# H.} V.M . . . . . . . . . . . . . . . . . . . . . . . . . . . . . . . . . . . . . . . . . . . ",
". . . . > / / / / / / ^ /+. . . . . . . . . . . . . . . . . . . . . . . . . . . . . . . . . . . . . . . . . . . . . . . . . . . ",
". . . . j.A./ / / / / / a+t . . . . . . . . . . . . . . . . . . . . . . . . . . . . . . . . . . . . . . . . . . . . . . . . . . ",
". . . . . p.S / / / / / / > . . . . . . . . . . . . . . . . . . . . . . . . . . . . . . . . . . . . . . . . . . . . . . . . . . ",
". . . . . . .+/ / / / / / k p.. . . . . . . . . . . . . . . . . . . . . . . . . . . . . . . . . . . . . . . . . . . . . . . . . ",
". . . . . . t a./ / / / / / H ' . . . . . . . . . . . . . . . . . . . . . . . . . . . . . . . . . . . . . . . . . . . . . . . . ",
". . . . . . . m.b+/ / / / / / ] l.. . . . . . . . . . . . . . . . . . . . . . . . . . . . . . . . . . . . . . . . . . . . . . . ",
". . . . . . . . o v./ / / / / / 0 /+. . . . . . . . . . . . . . . . . . . . . . . . . . . . . . . . . . . . . . . . . . . . . . ",
". . . . . . . . . o c+/ / / / / / A 7+. . . . . . . . . . . . . . . . . . . . . . . . . . . . . . . . t . . . . . . . . . . . . ",
". . . . . . . . . . n F./ / / / / / / d+#+. . . . . . . . . . . . . . . . . . . . . . . . . . . . o %+z.]+. . . . . . . . . . . ",
". . . . . . . . . . . . -+<./ / / / / / |.- (+. . . . . . . . . . . . . . . . . . . . . . . M 3.@+k / / /.. . . . . . . . . . . ",
". . . . . . . . . . . . . !+W / / / / / / / ^ C.E C . . . . . . . . . . . . . . . . X @ e+C.N / / / / / f+. . . . . . . . . . . ",
". . . . . . . . . . . . . . t T W./ / / / / / / / ^ i.Z.w =+@ < l.l.l.< 0+;.g+h+9+:+Z / / / / / / / / b.0.) . . . . . . . . . . ",
". . . . . . . . . . . . . . . . ) O C.^ / / / / / / / / / / / / / / / / / / / / / / / / / / / / c.9+;.j.. . . . . . . . . . . . ",
". . . . . . . . . . . . . . . . . . . ' .+3+7./ / / / / / / / / / / / / / / / / / / / / ^ i+*.;.X . . . . . . . . . . . . . . . ",
". . . . . . . . . . . . . . . . . . . . . . 5 ;.U j+f+<./ / / / / / / / / / g r k+L.r.++j . . . . . . . . . . . . . . . . . . . ",
". . . . . . . . . . . . . . . . . . . . . . . . . . . t j l+m+p ++++4.9.]+l.}.. . . . . . . . . . . . . . . . . . . . . . . . . "};
