/* XPM */
static const char * q[] = {
"48 48 302 2",
"  	c None",
". 	c #404040",
"+ 	c #202020",
"@ 	c #0C0C0C",
"# 	c #000000",
"$ 	c #303030",
"% 	c #080808",
"& 	c #020202",
"* 	c #0A0A0A",
"= 	c #141414",
"- 	c #101010",
"; 	c #2C2C2C",
"> 	c #161616",
", 	c #FF4C1B",
"' 	c #FF4E1B",
") 	c #FF501B",
"! 	c #FF511B",
"~ 	c #FF511A",
"{ 	c #060606",
"] 	c #FF4B1B",
"^ 	c #FF521A",
"/ 	c #FF551A",
"( 	c #FF571A",
"_ 	c #FF591A",
": 	c #FF5A1A",
"< 	c #2A2A2A",
"[ 	c #FF4A1B",
"} 	c #FF4F1B",
"| 	c #FF531A",
"1 	c #FF5A19",
"2 	c #FF5D19",
"3 	c #FF5F18",
"4 	c #FF6218",
"5 	c #FF471C",
"6 	c #FF4D1C",
"7 	c #FF521B",
"8 	c #FF5B1A",
"9 	c #FF5F19",
"0 	c #FF6219",
"a 	c #FF6518",
"b 	c #FF6717",
"c 	c #121212",
"d 	c #040404",
"e 	c #262626",
"f 	c #FF481C",
"g 	c #FF4F1C",
"h 	c #FF5E19",
"i 	c #FF6318",
"j 	c #FF6718",
"k 	c #FF6A17",
"l 	c #FF6E17",
"m 	c #282828",
"n 	c #FF7416",
"o 	c #FF7216",
"p 	c #FF7016",
"q 	c #FF6A18",
"r 	c #383838",
"s 	c #181818",
"t 	c #FF491C",
"u 	c #FF541A",
"v 	c #FF6119",
"w 	c #FF6E16",
"x 	c #FF7615",
"y 	c #242424",
"z 	c #FF7E14",
"A 	c #FF7D14",
"B 	c #FF7B14",
"C 	c #FF7815",
"D 	c #FF7215",
"E 	c #FF6F17",
"F 	c #FF6B17",
"G 	c #FF6019",
"H 	c #FF5B19",
"I 	c #0E0E0E",
"J 	c #2E2E2E",
"K 	c #FF6C16",
"L 	c #FF7116",
"M 	c #FF7616",
"N 	c #FF7B15",
"O 	c #3A3A3A",
"P 	c #FF8613",
"Q 	c #FF8513",
"R 	c #FF8414",
"S 	c #FF8114",
"T 	c #FF7A15",
"U 	c #FF6D17",
"V 	c #FD501A",
"W 	c #FF4E1C",
"X 	c #222222",
"Y 	c #FF451D",
"Z 	c #FF541B",
"` 	c #FF6118",
" .	c #FF7915",
"..	c #FF8214",
"+.	c #323232",
"@.	c #FF8E12",
"#.	c #FF8F11",
"$.	c #FF8F12",
"%.	c #FF8E11",
"&.	c #FF8C12",
"*.	c #FF8A12",
"=.	c #FF8213",
"-.	c #FF421D",
";.	c #FF7316",
">.	c #FF7F14",
",.	c #9D5D28",
"'.	c #FF9410",
").	c #FF9711",
"!.	c #FF9810",
"~.	c #FF9610",
"{.	c #FF9511",
"].	c #FF9111",
"^.	c #FF7F13",
"/.	c #FF6D16",
"(.	c #FF4A1C",
"_.	c #FF3F1D",
":.	c #FF471D",
"<.	c #FF8713",
"[.	c #FF9112",
"}.	c #FF9A10",
"|.	c #FF9C10",
"1.	c #FF9F0F",
"2.	c #FFA00F",
"3.	c #FFA10F",
"4.	c #FF9C0F",
"5.	c #FF9611",
"6.	c #FF8C13",
"7.	c #FF7A14",
"8.	c #FF6618",
"9.	c #FF571B",
"0.	c #FF481D",
"a.	c #FF431D",
"b.	c #FF4B1C",
"c.	c #FF531B",
"d.	c #FF8014",
"e.	c #FF8D12",
"f.	c #FF9311",
"g.	c #FF9910",
"h.	c #343434",
"i.	c #FFA20F",
"j.	c #FFA50E",
"k.	c #FFA80E",
"l.	c #FFAA0E",
"m.	c #FFAA0D",
"n.	c #FFA80D",
"o.	c #FFA50F",
"p.	c #FF9D0F",
"q.	c #FF7914",
"r.	c #FF3E1E",
"s.	c #FF9211",
"t.	c #FFAD0D",
"u.	c #FFB10C",
"v.	c #FFB20C",
"w.	c #FFB30C",
"x.	c #FFB00C",
"y.	c #FFA90E",
"z.	c #FF7716",
"A.	c #FF7315",
"B.	c #FF8912",
"C.	c #FFA60E",
"D.	c #FDAD0D",
"E.	c #FFB60B",
"F.	c #FFB80B",
"G.	c #FFBA0B",
"H.	c #FFBB0B",
"I.	c #FFB90C",
"J.	c #FFB50B",
"K.	c #FFB10D",
"L.	c #FFAC0D",
"M.	c #FF9212",
"N.	c #FF3B1E",
"O.	c #FF441D",
"P.	c #FF9510",
"Q.	c #FFBD0B",
"R.	c #FFC10A",
"S.	c #FFC409",
"T.	c #FFC40A",
"U.	c #FFC30A",
"V.	c #FFC10B",
"W.	c #FF9D10",
"X.	c #FF5D1A",
"Y.	c #FF3D1E",
"Z.	c #FF6817",
"`.	c #FF7117",
" +	c #FFA90D",
".+	c #FFC908",
"++	c #FFCC09",
"@+	c #FFCD08",
"#+	c #FFC909",
"$+	c #FFBF0A",
"%+	c #FFB80C",
"&+	c #FFA20E",
"*+	c #FF8113",
"=+	c #FF461D",
"-+	c #1E1E1E",
";+	c #FF3E1D",
">+	c #FF5919",
",+	c #FF9411",
"'+	c #FFB50C",
")+	c #FFD507",
"!+	c #FFD607",
"~+	c #FFD407",
"{+	c #FFD007",
"]+	c #FFCB09",
"^+	c #FFBD0A",
"/+	c #9D3936",
"(+	c #FF401D",
"_+	c #FF7C14",
":+	c #FFA70E",
"<+	c #FFB00D",
"[+	c #FFC00A",
"}+	c #1C1C1C",
"|+	c #FFDE05",
"1+	c #FFDD06",
"2+	c #FFD707",
"3+	c #FFD108",
"4+	c #FFB90B",
"5+	c #FF7C15",
"6+	c #FF7415",
"7+	c #903F39",
"8+	c #FF381E",
"9+	c #FF411D",
"0+	c #FF6C17",
"a+	c #FF7516",
"b+	c #FF7E15",
"c+	c #FF9811",
"d+	c #FFB20D",
"e+	c #FFE405",
"f+	c #FFDC06",
"g+	c #FFCC08",
"h+	c #FF9710",
"i+	c #FF8612",
"j+	c #FF7515",
"k+	c #FF371F",
"l+	c #FF6418",
"m+	c #FF8712",
"n+	c #FF9011",
"o+	c #FFC509",
"p+	c #FFCD09",
"q+	c #FFDF06",
"r+	c #FFC50A",
"s+	c #FFBC0B",
"t+	c #FF9012",
"u+	c #FFA10E",
"v+	c #AF9316",
"w+	c #FFC309",
"x+	c #FF371E",
"y+	c #FF401E",
"z+	c #FF9F10",
"A+	c #FFD008",
"B+	c #FFD807",
"C+	c #FF7D15",
"D+	c #FF361F",
"E+	c #FF3F1E",
"F+	c #FF581A",
"G+	c #FF8314",
"H+	c #FFAE0D",
"I+	c #FF8413",
"J+	c #FF341F",
"K+	c #FF461C",
"L+	c #FFBE0B",
"M+	c #FF561A",
"N+	c #FF451C",
"O+	c #9D3836",
"P+	c #FF3B1F",
"Q+	c #FF4C1C",
"R+	c #FFAB0D",
"S+	c #FFA40F",
"T+	c #FF6517",
"U+	c #903E39",
"V+	c #FF391E",
"W+	c #FFAB0E",
"X+	c #FF6F16",
"Y+	c #FF3320",
"Z+	c #FF6319",
"`+	c #FF8013",
" @	c #FF8D11",
".@	c #B0711E",
"+@	c #FF3C1E",
"@@	c #FF6018",
"#@	c #FF8A13",
"$@	c #1A1A1A",
"%@	c #FF4D1B",
"&@	c #FF8913",
"*@	c #FF6818",
"=@	c #FF3220",
"-@	c #FF8313",
";@	c #FF411E",
">@	c #FF3A1F",
",@	c #FF3420",
"'@	c #FF421E",
")@	c #363636",
"!@	c #FF7017",
"~@	c #FF351F",
"{@	c #FF561B",
"]@	c #FF391F",
"^@	c #FF551B",
"/@	c #FF431C",
"(@	c #824338",
"_@	c #FF381F",
":@	c #FF3D1D",
"<@	c #3C3C3C",
"                                        . + @ # # @ + .                                         ",
"                                $ # # # # # # # # # # # # # # $                                 ",
"                            % # # # # # # # # # # # # # # # # # # %                             ",
"                        % # # # # # # # & * = = = - # # # # # # # # # %                         ",
"                    ; # # # # # # > $ , ' ) ! ~ $ * # # # # # # # # # # # ;                     ",
"                  % # # # # { ; ] ' ^ / ( _ : - # # # # # # # # # # # # # # %                   ",
"                # # # # & < [ } | ( 1 2 3 4 % # # # # # # # # # # # # # # # # #                 ",
"              # # # # = 5 6 7 ( 8 9 0 a b c # # # # # # % * * d # # # # # # # # #               ",
"            # # # # e f g | _ h i j k l . # # # d m n o p l q j 4 r s # # # # # # #             ",
"          % # # # $ t ' u : v a k w o x = # # y z z A B C x D E F a G H > I $ # # # %           ",
"        ; # # # J f ' u H 0 j K L M N z # # O P P P Q R S z T M L U b v 8 V W J # # # ;         ",
"        # # # X Y 6 Z H ` j w n  .z ..P # +.@.#.#.$.%.&.*.P =.z C n l j v 8 Z 6 X # # #         ",
"      % # # c -.[ ^ _ G j U ;.T >.Q *.,.c '.).!.!.!.~.{.].%.*.Q ^.T n /.j G _ ! (.c # # %       ",
"      # # # _.:.} ( h a /.;.T S <.&.[.+.}.|.1.2.3.3.1.4.}.5.].6.P S 7.;.K 8.h 9.g 0.# # #       ",
"    % # # y a.b.c.H i k L  .d.P e.f.g.h.i.j.k.l.m.l.n.o.i.p.g.f.e.P d.q.o k i 8 | b.y # # %     ",
"    # # & r.:.g ( h j w x z Q &.s.g.1.+.l.t.u.v.w.v.x.t.y.o.1.}.s.&.Q z z.w j 9 ( } 5 & # #     ",
"  $ # # + -.(.7 : 4 k A.T ..B.].!.1.C.$ D.E.F.G.H.H.I.J.K.L.C.1.!.M.B...T D k 4 : 7 (.+ # # $   ",
"  # # # N.O., / 2 a /.x z P %.P.p.j.L.v.d Q.R.S.T.U.V.Q.F.v.L.j.W.~.@.P z x /.a X.Z , O.# # #   ",
"  # # * Y.Y ' ( 9 Z.`.C S B.s.}.i. +u.F.# c .+++@+++#+S.$+%+u.y.&+}.].B.*+ .p Z.G ( } =+* # #   ",
"  # # -+;+5 ) >+` q D N R &.,+p.C.t.'+Q.# # s )+!+~+{+]+S.^+'+t.j.p.'.&.R N o k v >+) 5 -+# #   ",
". # # /+(+t ! >+i F n _+Q @.~.1.:+<+F.[+}+# # @ |+1+2+3+#+R.4+<+k.1.).@.Q 5+6+F 0 : ~ f 7+# # . ",
"+ # # 8+9+t 7 H i 0+a+b+<.$.c+2.y.d+H.U.++# # # & e+f+)+g+T.H.v.y.3.h+$.i+b+j+U i 1 ! t 9+# # + ",
"@ # # k+(+t 7 : l+0+a+z m+n+c+3.l.v.H.o+p+!+# # # # q+!+@+r+s+w.m.3.!.t+P z j+U l+H 7 (.(+# # @ ",
"# # # k+(+t ^ H i 0+6+z <.$.!.u+y.w.H.S.g+~+< # # # # v+g+w+H.d+m.3.!.n+P z j+K i 8 7 t 9+# # # ",
"# # # x+y+f ! 1 i F 6+A Q %.h+z+:+K.4+R.#+A+B+f+# # # # #+R.4+<+n.1.5.@.Q C+n F 4 : ! 0.(+# # # ",
"@ # # D+E+f ) F+` k ;.N G+&.{.W.j.H+'+Q.T.]+A+)+!+& # # & Q.'+t.j.p.{.&.I+B ;.q ` F+) f E+# # @ ",
"+ # # J+Y.K+' ( 3 Z.p  .S B.s.}.i.y.<+F.L+T.#+++@+]+* # # s K. +3.}.s.B.S  .p Z.G M+' N+Y.# # + ",
". # # O+P+O.Q+u 2 a /.x z P @.~.W.j.R+v.%+Q.R.U.T.S.R.c # # L.S+W.~.@.P z x U T+2 / 6 a.U+# # . ",
"  # # -+V+9+(.7 : i F ;.T =.*.].!.1.C.W+K.J.F.H.s+H.4+'+I # -+z+c+M.*.=.T ;.k i : ^ t 9+-+# #   ",
"  # # * D+r.K+g ( h b X+M A Q &.f.g.2.S+y.t.<+v.v.v.<+t.y.& & g.f.&.Q z M w 8.9 M+} =+E+* # #   ",
"  # # # Y+N.a.b.c.H Z+k L  .`+P  @f.!.p.i.j.k.y.m.y.k.C.i..@# f.&.P d. .L k i 8 c.b.O.N.# # #   ",
"  $ # # + 8+E+:.} ( h a /.;.7.S P &.[.~.}.p.1.2.3.3.2.W.g.5.{ ; P `+7.n 0+8.h ( } 5 E++ # # $   ",
"    # # & J++@-.(.~ >+@@j l n T d.Q #@ @].{.).c+!.!.h+{.[.%.+.$@d.T 6+w j G >+^ b.a.+@d # #     ",
"    % # # y k+r.K+%@| 8 0 b U n  .A =.P B.&.%.#.n+t+%.&.&@P =.c  .;./.*@v : u , Y r.y # # %     ",
"      # # # =@V+y+5 ' / H v j 0+o x T b+S -@P <.<.<.P -@S z 7.-+L U j 4 H / g :.;@>@# # #       ",
"      % # # c ,@N.'@f } u : @@a k X+o x  .N A z z z 5+B  .x o )@k T+G 1 / } t -.P+c # # %       ",
"        # # # X D++@-.f ' u >+h 4 j F /.!@o n a+x j+n o p l F O i h _ u ' f -.+@X # # #         ",
"        ; # # # J D++@-.f 6 7 ( H h 4 a b k F 0+U /.F k Z.a i -+1 M+7 %@:.9++@J # # # ;         ",
"          % # # # $ ~@N.(+N+b.} | {@: X.9 ` i i l+i 4 v G 2 1 * c.} (.=+9++@$ # # # %           ",
"            # # # # e J+]@;+a.5 b.g ~ / ( _ 1 8 8 8 _ _ M+^@I = b.5 a.r.>@e # # # #             ",
"              # # # # = =@k++@E+/@:.(., ' ) ! 7 7 ~ ! ) W s # y a.(+N.k+= # # # #               ",
"                # # # # & = # + N.E+;@O.N+0.f t t t f (@* # # r +@_@< & # # # #                 ",
"                  % # # # # # # # * y )@:@E+(+9+<@m * # # # { D+; { # # # # %                   ",
"                      # # # # # # # # # # # # # # # # # # # & # # # # # # ;                     ",
"                        % # # # # # # # # # # # # # # # # # # # # # # %                         ",
"                            % # # # # # # # # # # # # # # # # # # %                             ",
"                                $ # # # # # # # # # # # # # # $                                 ",
"                                        . + @ # # @ + .                                         "};
