/* XPM */
static const char *q[] = {
/* width height num_colors chars_per_pixel */
"    48    48      247            2",
/* colors */
"`` c #000000",
"`. c #000404",
"`# c #040000",
"`a c #040400",
"`b c #040404",
"`c c #040808",
"`d c #080804",
"`e c #080808",
"`f c #080c0c",
"`g c #0c0c0c",
"`h c #040c10",
"`i c #081014",
"`j c #0c1010",
"`k c #0c1414",
"`l c #08141c",
"`m c #0c181c",
"`n c #100c04",
"`o c #141004",
"`p c #141408",
"`q c #18180c",
"`r c #1c1808",
"`s c #101410",
"`t c #101814",
"`u c #141810",
"`v c #101818",
"`w c #101c1c",
"`x c #141c18",
"`y c #141c1c",
"`z c #1c201c",
"`A c #082434",
"`B c #0c2834",
"`C c #0c2c3c",
"`D c #182828",
"`E c #1c2c28",
"`F c #1c2c2c",
"`G c #102c34",
"`H c #143038",
"`I c #18383c",
"`J c #1c383c",
"`K c #241c0c",
"`L c #24200c",
"`M c #2c280c",
"`N c #202014",
"`O c #202418",
"`P c #242c1c",
"`Q c #282814",
"`R c #202020",
"`S c #2c2c2c",
"`T c #20302c",
"`U c #283020",
"`V c #243c3c",
"`W c #383820",
"`X c #303030",
"`Y c #0c3850",
"`Z c #143848",
"`0 c #183c48",
"`1 c #203c40",
"`2 c #3c4024",
"`3 c #38402c",
"`4 c #384430",
"`5 c #384838",
"`6 c #104865",
"`7 c #104869",
"`8 c #104c6d",
".` c #18556d",
".. c #105075",
".# c #10557d",
".a c #10597d",
".b c #145979",
".c c #1c617d",
".d c #284440",
".e c #2c4444",
".f c #284848",
".g c #284c55",
".h c #28595d",
".i c #2c595d",
".j c #304840",
".k c #344c40",
".l c #34554c",
".m c #38554c",
".n c #305959",
".o c #305d5d",
".p c #385d55",
".q c #285d69",
".r c #305d61",
".s c #3c6159",
".t c #3c615d",
".u c #20657d",
".v c #24697d",
".w c #286979",
".x c #28697d",
".y c #2c6979",
".z c #2c6d79",
".A c #306169",
".B c #38696d",
".C c #3c6d6d",
".D c #306971",
".E c #306d75",
".F c #346d71",
".G c #346d75",
".H c #306d79",
".I c #386d71",
".J c #3c716d",
".K c #387171",
".L c #3c7171",
".M c #48380c",
".N c #44401c",
".O c #4c4014",
".P c #4c441c",
".Q c #50481c",
".R c #554c1c",
".S c #594810",
".T c #594814",
".U c #404024",
".V c #444020",
".W c #444424",
".X c #40482c",
".Y c #484c2c",
".Z c #59592c",
".0 c #555d38",
".1 c #615018",
".2 c #7d6114",
".3 c #7d6518",
".4 c #716524",
".5 c #716928",
".6 c #404040",
".7 c #445940",
".8 c #485d48",
"#` c #40655d",
"#. c #446559",
"## c #4c6d5d",
"#a c #55755d",
"#b c #597155",
"#c c #59795d",
"#d c #597d5d",
"#e c #5d7959",
"#f c #5d7d5d",
"#g c #40716d",
"#h c #44716d",
"#i c #447569",
"#j c #44756d",
"#k c #4c7165",
"#l c #4c7565",
"#m c #487569",
"#n c #4c7569",
"#o c #4c7965",
"#p c #557561",
"#q c #507961",
"#r c #507965",
"#s c #557961",
"#t c #597961",
"#u c #61754c",
"#v c #65754c",
"#w c #617955",
"#x c #617d59",
"#y c #617d5d",
"#z c #657d59",
"#A c #717540",
"#B c #656565",
"#C c #696969",
"#D c #7d7d7d",
"#E c #106185",
"#F c #146185",
"#G c #106189",
"#H c #186581",
"#I c #186585",
"#J c #1c6581",
"#K c #206581",
"#L c #658159",
"#M c #698155",
"#N c #6d8150",
"#O c #6d8155",
"#P c #698159",
"#Q c #75854c",
"#R c #798548",
"#S c #79854c",
"#T c #7d8548",
"#U c #7d854c",
"#V c #7d8948",
"#W c #718150",
"#X c #718550",
"#Y c #758550",
"#Z c #9d7d18",
"#0 c #8d7924",
"#1 c #897928",
"#2 c #917920",
"#3 c #85813c",
"#4 c #8d8534",
"#5 c #8d853c",
"#6 c #958128",
"#7 c #9d892c",
"#8 c #918938",
"a` c #918d3c",
"a. c #958d3c",
"a# c #95913c",
"aa c #9d9134",
"ab c #999138",
"ac c #99913c",
"ad c #9d9138",
"ae c #a1811c",
"af c #a58924",
"ag c #aa8d20",
"ah c #aa9124",
"ai c #ae952c",
"aj c #ae992c",
"ak c #a19134",
"al c #a19534",
"am c #a59530",
"an c #a59534",
"ao c #aa9530",
"ap c #ae9530",
"aq c #b28d20",
"ar c #b29928",
"as c #b2992c",
"at c #b69928",
"au c #ba9d24",
"av c #be9d24",
"aw c #ba9928",
"ax c #858944",
"ay c #818948",
"az c #858948",
"aA c #898940",
"aB c #898944",
"aC c #898d40",
"aD c #8d8d40",
"aE c #918d40",
"aF c #c29d20",
"aG c #c6a11c",
"aH c #caa118",
"aI c #caa11c",
"aJ c #cea118",
"aK c #cea11c",
"aL c #d2a114",
"aM c #d6a514",
"aN c #d2a518",
"aO c #c6a120",
"aP c #898989",
"aQ c #8d8d8d",
"aR c #9d9d9d",
"aS c #a1a1a1",
"aT c #a5a5a5",
"aU c #cecece",
"aV c #dedede",
"aW c #e2e2e2",
"aX c #e6e6e6",
"aY c #f6f6f6",
"aZ c #ffffff",
/* pixels */
"aZaZaZaZaZaZaZaZaZaZaZaZaZaZaZaZaZaVaS#C.6`R`g`````g`R.6#CaSaVaZaZaZaZaZaZaZaZaZaZaZaZaZaZaZaZaZ",
"aZaZaZaZaZaZaZaZaZaZaZaZaZaZaXaP`X`````````````````````````````XaPaXaZaZaZaZaZaZaZaZaZaZaZaZaZaZ",
"aZaZaZaZaZaZaZaZaZaZaZaZaW#B`e`````````````````````````````````````e#BaWaZaZaZaZaZaZaZaZaZaZaZaZ",
"aZaZaZaZaZaZaZaZaZaZaY#D`e```````````````.`f`v`m`m`k```````````````````e#DaYaZaZaZaZaZaZaZaZaZaZ",
"aZaZaZaZaZaZaZaZaZaU`S`````````````w`1.i.B.K.L.C`V`f```````````````````````SaUaZaZaZaZaZaZaZaZaZ",
"aZaZaZaZaZaZaZaZaT`e`````````c`J.A.I.L.J#g#j.t`k`````````````````````````````eaTaZaZaZaZaZaZaZaZ",
"aZaZaZaZaZaZaZaP`````````.`I.D.G.K#g#i#m#n#.`e``````````````````````````````````aPaZaZaZaZaZaZaZ",
"aZaZaZaZaZaZaP`````````m.q.E.I.J#h#m#l#r#p`s`````````````e`f`f`b``````````````````aPaZaZaZaZaZaZ",
"aZaZaZaZaZaT`````````H.w.E.I.J#i#l#r#s#f`5```````b`U.7#b#c#t#r#k#`.e`y``````````````aTaZaZaZaZaZ",
"aZaZaZaZaU`e```````0.v.H.I#g#m#l#s#c#y#z`u`````P#v#O#M#M#z#y#c#s#l#m#g.o`w`i`0```````eaUaZaZaZaZ",
"aZaZaZaY`S```````Z.v.y.G.J#m#l#s#f#x#M#u````.X#Q#Q#Q#Y#W#O#M#z#f#s#o#m.J.F.g.v`Z```````SaYaZaZaZ",
"aZaZaZ#D```````G#K.w.G.L#i#l#s#f#z#O#W.0```2ayayayay#T#S#Q#W#O#z#f#s#l#i.L.G.w.u`G``````#DaZaZaZ",
"aZaZaW`e`````l.c.v.E.K#g#l#s#f#z#O#X#S.Y`qaxaBaCaCaBaxaz#V#S#Y#O#z#f#s#l#g.K.E.v.c`l`````eaWaZaZ",
"aZaZ#B``````.`#K.w.G.J#m#r#d#z#O#Y#Say.U.ZaDa`a`a`a`aEaDaBay#U#Y#O#z#f#r#m.J.G.w#K.```````#BaZaZ",
"aZaX`e`````C#I.v.z.K#h#l#t#x#M#X#SayaB.W#5ababadadababa.aDaBay#U#X#M#x#t#l#h.K.H.v#H`C`````eaXaZ",
"aZaP`````..b#J.w.G.J#m#q#f#L#W#SayaBa`.V#4alalamamanaladaca`aAay#S#W#L#f#q#m.J.G.w#J.b`.````aPaZ",
"aZ`X`````B#F#K.y.F#g#l#t#x#O#Q#VaBaEab.N.Qaoaiajajaiaoanaaaba`aBay#Q#O#x#t#l#g.I.y.u#F`B`````XaZ",
"aV```````8#I.v.H.K#i#r#f#z#W#SaxaDa#aa.R`b#6atatatatasapamaaa#aDax#S#W#L#f#r#i.K.E.v#I`8``````aV",
"aR`````h#E#J.v.E.L#m#s#f#M#Y#VaBa`adan.4```rahavavauawaraianada`aBay#Y#M#y#s#m.J.E.x#J#E`h````aR",
"#C`````A#G#J.w.G#g#n#s#x#O#SayaDa#alao#7`````KaqaOaFavawasaoalabaDay#S#O#x#t#l#g.G.w#J#E`A````#C",
".6`````Y#F#K.w.G#g#l#t#z#W#SaxaEabanajat`M`````oaeaIaOavatajanaba`ax#U#W#z#t#l#g.F.y#K#F`Y````.6",
"`R`````7#F#K.y.I#h#r#c#L#X#TaBa`adaoasau#2```````a.3aIaFauasaoada.aB#T#X#L#f#r#h.I.y#K#F`7`````R",
"`g````..#F.u.y.I#i#r#f#M#Y#VaBa.aaaoatavaO.T````````.TaFavataoaka.aA#V#Y#M#f#r#i.K.y.u#F..`````g",
"``````.##F.u.y.K#i#r#f#M#YayaCa.akaoatavaGaH.M````````.Oavataoaka#aCay#Y#M#f#r#i.K.z.u#F.a``````",
"``````.##F.u.y.K#i#r#f#M#YayaCa.akaoatavaGaJaL.S````````.1ataoaka#aCay#Y#M#f#r#i.K.z.u#F.a``````",
"`g````..#F.u.y.K#i#r#f#M#Y#VaAa.aaaoatavaOaKaNaM.2`a`````a#0aoaka.aAay#Y#M#f#r#i.K.y.u#F..`````g",
"`R`````7#F#K.y.I#h#r#c#L#X#TaBa`adaoasauaFaIaJaNaN#Z`n`````Laoada.aB#T#X#L#f#r#h.I.y#K#F`6`````R",
".6`````Y#F#K.w.G#g#l#t#z#W#SaxaEabanajatavaOaIaKaKaIag`r````.5aba`ax#U#W#z#c#l#g.F.y#K#F`Y````.6",
"#C`````A#G#J.w.G#g#l#t#x#O#SayaDacalaoasawavaFaOaOaFavaf`p```QabaDaz#S#O#x#t#l#g.G.w#J#F`A````#C",
"aR`````h#E#J.v.E.L#m#s#y#M#Y#VaBa`adanaiarawavavavavawar#1`a`##3aBay#Y#M#y#s#m.J.E.x#J#E`h````aR",
"aV```````8#I.v.E.K#i#r#f#L#W#SaxaDa#aaamaiasatatatatasaiam.P``.Zax#S#W#L#f#r#i.K.E.v#I`8``````aV",
"aZ`X`````B#F#K.y.F#g#l#t#x#O#QayaBa`abaaanaoaiajajaiaoanaa#8`d`Way#Q#O#x#t#l#g.I.y.u#F`B`````XaZ",
"aZaP`````..b#J.w.G.J#m#q#f#L#W#SayaAa`abadalanamamanaladaba`.U`N#S#W#P#f#s#m.J.G.w#J.b`b````aPaZ",
"aZaX`e`````C#H.v.H.K#h#l#t#x#M#X#UayaAaEa.ababadadababa.aEaA#A`s#X#M#x#t#l#h.K.E.v#H`C`````eaXaZ",
"aZaZ#B``````.`#K.w.G.J#m#r#f#z#O#Y#UayaBaDaEa`a.a.a`aEaDaBay#R`O#O#z#f#r#m.J.G.w#K.```````#BaZaZ",
"aZaZaW`e`````l.c.v.E.K#g#l#s#f#z#O#Y#S#VaxaxaBaCaCaBaxaxay#S#Y`3#w#f#s#l#h.K.E.v.c`l`````eaWaZaZ",
"aZaZaZ#D```````G#K.w.G.L#i#l#s#f#z#O#W#Q#S#Tayayayay#T#S#Q#W#O`4#e#s#l#i.L.G.w.u`G``````#DaZaZaZ",
"aZaZaZaY`S```````Z.v.z.G.J#m#o#s#f#z#M#O#X#Y#Q#S#S#Q#Y#X#O#M#x`z#a#r#m#g.F.z.v`Z```````SaYaZaZaZ",
"aZaZaZaZaU`e```````0.x.E.I#g#m#l#s#c#y#z#M#M#O#N#N#O#O#M#z#y.8`f#l#m#g.I.E.x`0```````eaUaZaZaZaZ",
"aZaZaZaZaZaT`````````H.w.E.I#g#i#l#r#t#f#f#x#z#z#z#z#x#f#f#a`j`t#i#g.I.E.w`H````````aTaZaZaZaZaZ",
"aZaZaZaZaZaZaP`````````m.q.h.n.J#h#m#l#r#s#t#c#c#c#c#t#s##`x```E.J.I.E.q`m````````aPaZaZaZaZaZaZ",
"aZaZaZaZaZaZaZaQ`````````.`m```D.n#g#i#m#l#l#r#r#r#r#l.k`f````.f.G.D`I`.````````aQaZaZaZaZaZaZaZ",
"aZaZaZaZaZaZaZaZaT`e```````````````f`F.d.l.p.s.m.j`T`f```````c.r`J`c`````````eaTaZaZaZaZaZaZaZaZ",
"aZaZaZaZaZaZaZaZaZaU`S```````````````````````````````````````.`````````````SaUaZaZaZaZaZaZaZaZaZ",
"aZaZaZaZaZaZaZaZaZaZaY#D`e`````````````````````````````````````````````e#DaYaZaZaZaZaZaZaZaZaZaZ",
"aZaZaZaZaZaZaZaZaZaZaZaZaW#B`e`````````````````````````````````````e#BaWaZaZaZaZaZaZaZaZaZaZaZaZ",
"aZaZaZaZaZaZaZaZaZaZaZaZaZaZaXaP`X`````````````````````````````XaPaXaZaZaZaZaZaZaZaZaZaZaZaZaZaZ",
"aZaZaZaZaZaZaZaZaZaZaZaZaZaZaZaZaZaVaS#C.6`R`g`````g`R.6#CaSaVaZaZaZaZaZaZaZaZaZaZaZaZaZaZaZaZaZ"
};
