/* XPM */
static const char * t[] = {
"48 48 379 2",
"  	c None",
". 	c #404040",
"+ 	c #202020",
"@ 	c #0C0C0C",
"# 	c #000000",
"$ 	c #303030",
"% 	c #080808",
"& 	c #000404",
"* 	c #080C0C",
"= 	c #101818",
"- 	c #0C181C",
"; 	c #0C1414",
"> 	c #2C2C2C",
", 	c #101C1C",
"' 	c #203C40",
") 	c #5863D4",
"! 	c #0033F6",
"~ 	c #0036F6",
"{ 	c #0037F6",
"] 	c #243C3C",
"^ 	c #040808",
"/ 	c #1C383C",
"( 	c #123AF0",
"_ 	c #0035F7",
": 	c #0038F6",
"< 	c #003BF6",
"[ 	c #003EF5",
"} 	c #0040F5",
"| 	c #3C5EDC",
"1 	c #18383C",
"2 	c #0031F7",
"3 	c #003AF5",
"4 	c #003FF5",
"5 	c #0042F4",
"6 	c #0046F3",
"7 	c #0048F3",
"8 	c #245AE5",
"9 	c #1238F0",
"0 	c #0039F6",
"a 	c #0043F4",
"b 	c #004CF3",
"c 	c #004FF2",
"d 	c #0052F2",
"e 	c #101410",
"f 	c #040404",
"g 	c #143038",
"h 	c #002FF8",
"i 	c #003CF6",
"j 	c #004DF3",
"k 	c #0056F1",
"l 	c #0059F1",
"m 	c #384838",
"n 	c #283020",
"o 	c #6386D7",
"p 	c #005EF0",
"q 	c #005BF1",
"r 	c #0055F1",
"s 	c #0051F2",
"t 	c #255BE3",
"u 	c #2C4444",
"v 	c #141C1C",
"w 	c #183C48",
"x 	c #0030F8",
"y 	c #0044F3",
"z 	c #004BF3",
"A 	c #0050F3",
"B 	c #005AF0",
"C 	c #005FF0",
"D 	c #0063EF",
"E 	c #141810",
"F 	c #242C1C",
"G 	c #006CEF",
"H 	c #006BEE",
"I 	c #006AEE",
"J 	c #0068EF",
"K 	c #0065EF",
"L 	c #005BF0",
"M 	c #0056F2",
"N 	c #576CD2",
"O 	c #081014",
"P 	c #143848",
"Q 	c #0053F2",
"R 	c #0064EF",
"S 	c #006DEE",
"T 	c #40482C",
"U 	c #0076ED",
"V 	c #0075EC",
"W 	c #0075ED",
"X 	c #0073ED",
"Y 	c #0070EE",
"Z 	c #0064F0",
"` 	c #0045F4",
" .	c #8887BA",
"..	c #102C34",
"+.	c #002EF8",
"@.	c #0046F4",
"#.	c #004DF2",
"$.	c #0054F1",
"%.	c #0062F0",
"&.	c #0067EF",
"*.	c #0071ED",
"=.	c #4789DE",
"-.	c #3C4024",
";.	c #007FEC",
">.	c #0080EB",
",.	c #007CEB",
"'.	c #007AEC",
").	c #0076EC",
"!.	c #0072ED",
"~.	c #0061F0",
"{.	c #0036F7",
"].	c #08141C",
"^.	c #002BF8",
"/.	c #0034F6",
"(.	c #003CF5",
"_.	c #0044F4",
":.	c #0054F2",
"<.	c #005CF0",
"[.	c #007AEB",
"}.	c #6F6A58",
"|.	c #18180C",
"1.	c #0086EA",
"2.	c #0088EA",
"3.	c #008AEA",
"4.	c #008BEA",
"5.	c #0089E9",
"6.	c #0083EA",
"7.	c #0070ED",
"8.	c #0063F0",
"9.	c #0028F8",
"0.	c #003AF6",
"a.	c #0042F5",
"b.	c #004AF3",
"c.	c #0053F1",
"d.	c #006AEF",
"e.	c #0071EE",
"f.	c #0078ED",
"g.	c #007EEB",
"h.	c #0084EB",
"i.	c #404024",
"j.	c #589BDE",
"k.	c #0090E8",
"l.	c #0093E8",
"m.	c #0095E8",
"n.	c #0095E7",
"o.	c #0094E8",
"p.	c #0092E8",
"q.	c #008DE9",
"r.	c #0089EA",
"s.	c #007EEC",
"t.	c #0078EC",
"u.	c #0C2C3C",
"v.	c #002DF8",
"w.	c #003FF4",
"x.	c #0050F2",
"y.	c #0061EF",
"z.	c #0069EE",
"A.	c #008CE9",
"B.	c #444424",
"C.	c #0096E7",
"D.	c #009AE8",
"E.	c #009DE6",
"F.	c #009FE6",
"G.	c #009FE7",
"H.	c #009DE7",
"I.	c #009AE7",
"J.	c #0096E8",
"K.	c #0087EB",
"L.	c #0079EC",
"M.	c #0069EF",
"N.	c #0048F4",
"O.	c #0030F6",
"P.	c #007FEB",
"Q.	c #0087EA",
"R.	c #008EE9",
"S.	c #444020",
"T.	c #00A0E6",
"U.	c #00A4E5",
"V.	c #00A7E5",
"W.	c #00A8E5",
"X.	c #00AAE5",
"Y.	c #00A9E5",
"Z.	c #00A4E6",
"`.	c #008EE8",
" +	c #0067EE",
".+	c #0C2834",
"++	c #002BF7",
"@+	c #006CEE",
"#+	c #008FE9",
"$+	c #44401C",
"%+	c #87ABD3",
"&+	c #00ADE4",
"*+	c #00B1E4",
"=+	c #00B3E3",
"-+	c #00B4E3",
";+	c #00B3E4",
">+	c #00A3E5",
",+	c #005AF1",
"'+	c #0035F6",
")+	c #0025F9",
"!+	c #002EF7",
"~+	c #0039F5",
"{+	c #004CF2",
"]+	c #007BEC",
"^+	c #00A5E5",
"/+	c #6DB1E4",
"(+	c #00B7E3",
"_+	c #00BBE2",
":+	c #00BEE2",
"<+	c #00BDE1",
"[+	c #00BAE2",
"}+	c #00B2E3",
"|+	c #00ABE4",
"1+	c #040C10",
"2+	c #0032F7",
"3+	c #00ACE5",
"4+	c #1C1808",
"5+	c #00C5E1",
"6+	c #00C7E0",
"7+	c #00C9E0",
"8+	c #00C8E0",
"9+	c #00C5E0",
"0+	c #00C0E2",
"a+	c #00ABE5",
"b+	c #003BF5",
"c+	c #082434",
"d+	c #002AF8",
"e+	c #0066EF",
"f+	c #0097E8",
"g+	c #241C0C",
"h+	c #00D1DE",
"i+	c #00D3DF",
"j+	c #00CEDF",
"k+	c #00C1E1",
"l+	c #00BAE3",
"m+	c #00B1E3",
"n+	c #0083EB",
"o+	c #006FED",
"p+	c #005CF1",
"q+	c #0034F7",
"r+	c #636F62",
"s+	c #002CF7",
"t+	c #0068EE",
"u+	c #007DEB",
"v+	c #0091E9",
"w+	c #00BFE1",
"x+	c #2C280C",
"y+	c #141004",
"z+	c #00DDDD",
"A+	c #00DCDD",
"B+	c #00D7DE",
"C+	c #00D1DF",
"D+	c #00C0E1",
"E+	c #00AEE4",
"F+	c #0091E8",
"G+	c #007CEC",
"H+	c #004AF4",
"I+	c #5C6A5B",
"J+	c #142FF1",
"K+	c #002DF7",
"L+	c #0041F5",
"M+	c #0055F2",
"N+	c #0060F0",
"O+	c #00C4E1",
"P+	c #00CEE0",
"Q+	c #040400",
"R+	c #00E5DC",
"S+	c #00DFDD",
"T+	c #00C4E0",
"U+	c #009CE7",
"V+	c #0093E9",
"W+	c #0074ED",
"X+	c #1439F0",
"Y+	c #0023F9",
"Z+	c #0057F2",
"`+	c #0080EC",
" @	c #008AE9",
".@	c #00BDE2",
"+@	c #58C8E5",
"@@	c #58CDE4",
"#@	c #00DBDD",
"$@	c #00C8E1",
"%@	c #009EE7",
"&@	c #0024F9",
"*@	c #0057F1",
"=@	c #00AAE4",
"-@	c #00B4E4",
";@	c #00D2DE",
">@	c #48380C",
",@	c #756B5F",
"'@	c #00A0E7",
")@	c #009EE6",
"!@	c #00DCDE",
"~@	c #58D1E6",
"{@	c #31C7E2",
"]@	c #002CF8",
"^@	c #0060EF",
"/@	c #00B0E4",
"(@	c #00DFDC",
"_@	c #00E7DC",
":@	c #142EF1",
"<@	c #009BE7",
"[@	c #00B7E2",
"}@	c #00BFE2",
"|@	c #100C04",
"1@	c #24200C",
"2@	c #0086EB",
"3@	c #007DEC",
"4@	c #005EF1",
"5@	c #2E47E6",
"6@	c #0033F7",
"7@	c #006FEE",
"8@	c #00A9E4",
"9@	c #00C2E1",
"0@	c #00D2DF",
"a@	c #0027F8",
"b@	c #0031F6",
"c@	c #0059F0",
"d@	c #00A3E6",
"e@	c #00C7E1",
"f@	c #141408",
"g@	c #282814",
"h@	c #0062EF",
"i@	c #002FF7",
"j@	c #0038F5",
"k@	c #0084EA",
"l@	c #00A5E6",
"m@	c #00BBE3",
"n@	c #040000",
"o@	c #0022FA",
"p@	c #009CE6",
"q@	c #756E60",
"r@	c #589FDD",
"s@	c #0027F9",
"t@	c #0077EC",
"u@	c #080804",
"v@	c #383820",
"w@	c #005FF1",
"x@	c #0047F4",
"y@	c #0092E9",
"z@	c #202014",
"A@	c #0022F9",
"B@	c #003DF6",
"C@	c #202418",
"D@	c #006DED",
"E@	c #0081EB",
"F@	c #38402C",
"G@	c #0030F7",
"H@	c #384430",
"I@	c #0052F1",
"J@	c #0029F8",
"K@	c #1C201C",
"L@	c #003DF5",
"M@	c #0047F3",
"N@	c #4D76DA",
"O@	c #0043F5",
"P@	c #0028F9",
"Q@	c #004FF3",
"R@	c #0C1010",
"S@	c #101814",
"T@	c #1230F1",
"U@	c #5A5FD4",
"V@	c #6E6FCD",
"W@	c #003EF4",
"X@	c #141C18",
"Y@	c #1C2C28",
"Z@	c #1235F0",
"`@	c #182828",
" #	c #5C6652",
".#	c #284848",
"+#	c #1C2C2C",
"@#	c #284440",
"##	c #8280CC",
"$#	c #5363D7",
"%#	c #3C57DE",
"&#	c #8081CC",
"*#	c #304840",
"=#	c #20302C",
"-#	c #4050DC",
"                                        . + @ # # @ + .                                         ",
"                                $ # # # # # # # # # # # # # # $                                 ",
"                            % # # # # # # # # # # # # # # # # # # %                             ",
"                        % # # # # # # # & * = - - ; # # # # # # # # # %                         ",
"                    > # # # # # # , ' ) ! ~ { { ] * # # # # # # # # # # # >                     ",
"                  % # # # # ^ / ( _ : < [ } | ; # # # # # # # # # # # # # # %                   ",
"                # # # # & 1 2 ~ 3 4 5 6 7 8 % # # # # # # # # # # # # # # # # #                 ",
"              # # # # - 9 ! 0 [ a 7 b c d e # # # # # # % * * f # # # # # # # # #               ",
"            # # # # g h ~ i 5 7 j d k l m # # # f n o p q l r s t u v # # # # # # #             ",
"          % # # # w x { [ y z A k B C D E # # F G H I J K D p L M s z N , O w # # # %           ",
"        > # # # P h { [ 6 b Q l C R J S # # T U U V W X Y S J Z C l Q j `  .{ P # # # >         ",
"        # # # ..+.~ [ @.#.$.L %.&.S *.=.# -.;.>.>.>.;.,.'.).!.S &.~.L $.#.@.[ {...# # #         ",
"      % # # ].^./.(._.b :.<.D I Y V [.}.|.1.2.3.3.4.5.1.6.>.'.U 7.I 8.q :.j ` (./.].# # %       ",
"      # # # 9.2 0.a.b.c.L 8.d.e.f.g.h.i.j.k.l.m.n.o.p.k.q.r.h.s.t.*.d.8.L c.z a.0 2 # # #       ",
"    % # # u.v.~ w.7 x.l y.z.*.t.>.1.A.B.C.D.E.F.G.G.H.I.J.p.q.K.>.L.*.M.y.l s N.[ ~ u.# # %     ",
"    # # & 9.O.0._.b k p J 7.t.P.Q.R.m.S.T.U.V.W.X.Y.V.Z.F.I.m.`.Q.>.f.7. +C M b _.3 2 & # #     ",
"  $ # # .+++_ w.7 s L R @+U g.1.#+J.E.$+%+&+*+=+-+;+*+&+Y.>+H.C.#+Q.g.V S D ,+s N.4 '+.+# # $   ",
"  # # # )+!+~+5 {+r C z.!.]+6.q.m.H.^+/+f (+_+:+:+<+[+(+}+|+U.H.m.q.6.]+!.M.p M z 5 ~++.# # #   ",
"  # # 1+9.2+< ` c l D S ).>.r.p.I.Z.3+=+# 4+5+6+7+8+9+0+[+=+a+>+I.p.r.P.).S D l A ` b+2 1+# #   ",
"  # # c+d+! [ N.d <.e+7.L.6.A.f+F.Y.}+[+# # g+h+i+h+j+8+k+l+m+Y.T.J.q.n+L.o+e+p+d N.[ q+c+# #   ",
". # # r+s+'+} b.:.p t+!.u+1.v+I.Z.&+(+w+x+# # y+z+A+B+C+7+D+(+E+U.I.F+Q.G+!.t+C $.H+} '+I+# # . ",
"+ # # J+K+{ L+z M+N+d.W P.r.l.H.V.*+l+O+P+# # # Q+R+S+B+P+T+_+*+V.U+V+r.;.W+I N+M z L+{ X+# # + ",
"@ # # Y+!+: 5 {+Z+~.@+).`+ @m.F.Y.=+.@8+h++@# # # # @@#@C+$@.@=+Y.%@o. @>.U H ~.Z+j 5 : +.# # @ ",
"# # # &@v.: a.j *@~.H U >.3.m.G.=@-@:+7+;@z+>@# # # # ,@i+8+:+-@X.'@m.4.>.U @+y.*@b 5 : !+# # # ",
"# # # &@!+: 5 b *@~.H U >.4.o.)@Y.=+.@6+C+!@R+~@# # # # {@$@.@=+Y.)@o.3.>.V H ~.*@b 5 : +.# # # ",
"@ # # Y+]@{ a.z M ^@I W+s.5.p.H.V./@_+9+P+B+(@R+_@Q+# # Q+O+[+m+V.E.l.5.g.V d.N+M+z a.{ ]@# # @ ",
"+ # # :@]@~ } b.r p t+X ,.1.v+<@U.&+[@}@7+C+B+A+z+#@|@# # 1@(+E+Z.I.k.2@3@X z.4@$.H+} _ 5@# # + ",
". # # r+d+6@[ 7 d p+e+7@L.h.q.C.T.8@*+[+9@8+j+0@0@0@P+4+# # }+Y.T.J.q.n+'.Y e+p+d 7 [ q+I+# # . ",
"  # # c+a@b@(.@.x.c@8.@+W P.r.F+<@d@a+=+l+0+O+8+8+e@5+D+f@# g@>+<@F+r.P.U S h@c@c ` b+2 c+# #   ",
"  # # 1+)+i@j@a.{+r C t+!.[.k@A.m.H.l@a+}+(+[+:+:+.@m@(+m+Q+n@E.m.A.h.]+*.z.C M+b 5 : i@1+# #   ",
"  # # # o@]@'+[ 7 d L R @+U s.1.#+J.p@d@Y.E+m+;+-@;+*+E+Y.q@# r@R.Q.P.V S D ,+s N.[ '+^.# # #   ",
"  $ # # .+s@2 3 _.j k C &.Y t@;.2.R.m.<@T.Z.V.8@X.Y.V.Z.'@<@u@v@Q.>.t.7@J w@r {+_.b+b@.+# # $   ",
"    # # & Y+K+~ 4 x@x.l %.M.*.L.>.1.q.y@J.I.H.G.F.F.H.I.C.p.i.z@>.L.*.I ~.l s N.[ ~ ]@f # #     ",
"    % # # u.s@2 ~+5 b.Q L D I e.t.g.n+r.A.v+V+m.m.o.l.F+q.r.n+e t.*.I 8.q Q z a.0 2 u.# # %     ",
"      # # # A@^.6@B@` j r p+8.d.Y V '.P.n+1.r. @4.3.r.Q.k@>.]+C@7@z.8.<.$.b ` (.q+^.# # #       ",
"      % # # ].)+v.{.[ ` #.:.q h@ +D@*.U '.G+P.P.E@P.P.3@'.U !.F@&.%.L :.j 6 [ ~ !+].# # %       ",
"        # # # ..s@G@{ 4 @.b Q l p Z J @+Y X W V U U W+!.Y S M.H@p c@I@b 6 w.{ i@..# # #         ",
"        > # # # P J@G@{ [ _.b.s k q C D e+z.I @+H H I J e+h@p K@r x.z _.L@{ x P # # # >         ",
"          % # # # w 9.i@~ i 5 M@#.d r l <.p N+y.%.~.N+p p+l N@* b 7 O@(.~ G@w # # # %           ",
"            # # # # g P@!+/.0.w.a N.b Q@d $.M *@*@k k $.d c R@S@a 4 3 ! +.g # # # #             ",
"              # # # # - T@U@V@~ < W@a.` N.b.{+j j b b b.N.X@# Y@0.'+G@Z@- # # # #               ",
"                # # # # & - # `@V@_ : b+[ } 5 a a.5 5  #* # # .#2 K+1 & # # # #                 ",
"                  % # # # # # # # * +#@###$#%#&#*#=#* # # # ^ -#/ ^ # # # # %                   ",
"                      # # # # # # # # # # # # # # # # # # # & # # # # # # >                     ",
"                        % # # # # # # # # # # # # # # # # # # # # # # %                         ",
"                            % # # # # # # # # # # # # # # # # # # %                             ",
"                                $ # # # # # # # # # # # # # # $                                 ",
"                                        . + @ # # @ + .                                         "};
